<?xml version="1.0" encoding="utf-8"?>
<!-- Generator: Adobe Illustrator 25.4.1, SVG Export Plug-In . SVG Version: 6.00 Build 0)  -->
<svg version="1.1" id="Capa_1" xmlns="http://www.w3.org/2000/svg" xmlns:xlink="http://www.w3.org/1999/xlink" x="0px" y="0px"
	 width="595.276px" height="336.044px" viewBox="0 0 595.276 336.044" enable-background="new 0 0 595.276 336.044"
	 xml:space="preserve">
<g>
	<rect x="44.698" y="39.994" fill="#241E1F" width="168.94" height="150.169"/>
	<polygon fill="#FFFFFF" points="154.22,53.748 154.22,72.699 150.105,72.699 150.105,176.59 108.087,176.59 108.087,72.338 
		100.001,72.338 100.001,176.59 57.982,176.59 57.982,53.748 	"/>
	<rect x="158.191" y="53.748" fill="#FFFFFF" width="18.753" height="18.753"/>
	<rect x="158.191" y="75.804" fill="#FFFFFF" width="18.753" height="100.787"/>
	<rect x="181.005" y="53.748" fill="#FFFFFF" width="18.753" height="18.753"/>
	<rect x="181.005" y="75.804" fill="#FFFFFF" width="18.753" height="100.787"/>
	<g>
		<path d="M237.823,104.011h24.049l10.722,61.181h0.307l10.722-61.181h24.049v85.482h-15.93v-64.722h-0.307l-12.254,64.722h-14.093
			l-12.254-64.722h-0.307v64.722h-14.705V104.011z"/>
		<path d="M325.594,185.097c-4.392-3.744-6.587-9.037-6.587-15.875v-44.939c0-6.839,2.195-12.13,6.587-15.876
			c4.389-3.743,10.722-5.617,18.995-5.617c8.271,0,14.602,1.874,18.994,5.617c4.389,3.746,6.587,9.037,6.587,15.876v44.939
			c0,6.838-2.197,12.131-6.587,15.875c-4.392,3.745-10.722,5.617-18.994,5.617C336.317,190.714,329.984,188.842,325.594,185.097z
			 M353.32,170.077v-46.649c0-5.618-2.911-8.426-8.731-8.426c-5.821,0-8.732,2.809-8.732,8.426v46.649
			c0,5.617,2.911,8.426,8.732,8.426C350.409,178.503,353.32,175.694,353.32,170.077z"/>
		<path d="M386.865,185.097c-4.392-3.744-6.587-9.037-6.587-15.875v-44.939c0-6.839,2.195-12.13,6.587-15.876
			c4.389-3.743,10.722-5.617,18.995-5.617c8.271,0,14.602,1.874,18.994,5.617c4.389,3.746,6.587,9.037,6.587,15.876v44.939
			c0,6.838-2.197,12.131-6.587,15.875c-4.392,3.745-10.722,5.617-18.994,5.617C397.588,190.714,391.255,188.842,386.865,185.097z
			 M414.591,170.077v-46.649c0-5.618-2.911-8.426-8.731-8.426c-5.821,0-8.732,2.809-8.732,8.426v46.649
			c0,5.617,2.911,8.426,8.732,8.426C411.68,178.503,414.591,175.694,414.591,170.077z"/>
		<path d="M442.775,104.011h24.969c8.679,0,15.011,1.609,18.994,4.824c3.983,3.217,5.974,8.163,5.974,14.837v5.251
			c0,8.874-3.676,14.492-11.029,16.852v0.244c4.083,0.977,6.97,2.973,8.655,5.984c1.686,3.013,2.527,7.043,2.527,12.09v15.02
			c0,2.442,0.101,4.417,0.307,5.923c0.204,1.507,0.987,2.925,3.009,4.457h-18.633c-0.613-1.383-1.022-2.686-1.225-3.908
			c-0.206-1.221-0.307-3.419-0.307-6.594V163.36c0-3.908-0.792-6.634-2.375-8.182c-1.584-1.545-4.315-2.32-8.195-2.32h-5.82v36.635
			h-16.85V104.011z M465.752,140.646c3.369,0,5.897-0.691,7.582-2.076c1.685-1.383,2.527-3.703,2.527-6.961v-6.594
			c0-3.093-0.69-5.331-2.068-6.716c-1.379-1.384-3.55-2.076-6.51-2.076h-7.659v24.423H465.752z"/>
		<path d="M504.505,104.011h45.954v12.212h-29.104v22.591h23.13v12.212h-23.13v26.256h29.104v12.212h-45.954V104.011z"/>
	</g>
	<g>
		<path d="M44.698,207.324h16.259v87.573H44.698V207.324z"/>
		<path d="M75.162,207.324H95.56l15.815,52.419h0.295v-52.419h14.485v87.573h-16.702l-19.511-63.929h-0.295v63.929H75.162V207.324z"
			/>
		<path d="M136.974,207.324h24.832c8.078,0,14.139,1.836,18.18,5.505c4.039,3.671,6.06,9.051,6.06,16.138v44.287
			c0,7.09-2.021,12.469-6.06,16.138c-4.042,3.671-10.102,5.505-18.18,5.505h-24.832V207.324z M161.51,282.387
			c2.661,0,4.704-0.667,6.134-2.002c1.427-1.333,2.143-3.503,2.143-6.505v-45.538c0-3.002-0.716-5.17-2.143-6.505
			c-1.43-1.333-3.473-2.001-6.134-2.001h-8.277v62.552H161.51z"/>
		<path d="M205.967,290.456c-4.139-3.794-6.208-9.236-6.208-16.326v-66.806h16.259v67.807c0,3.002,0.714,5.172,2.143,6.505
			c1.427,1.335,3.474,2.002,6.134,2.002c2.661,0,4.704-0.667,6.134-2.002c1.427-1.333,2.143-3.503,2.143-6.505v-67.807h15.667
			v66.806c0,7.09-2.069,12.532-6.208,16.326c-4.139,3.796-10.15,5.692-18.032,5.692
			C216.114,296.148,210.105,294.252,205.967,290.456z"/>
		<path d="M261.671,290.456c-4.042-3.794-6.059-9.236-6.059-16.326v-11.914h15.372v12.915c0,5.673,2.808,8.507,8.425,8.507
			c2.757,0,4.852-0.688,6.282-2.064c1.427-1.376,2.143-3.606,2.143-6.693c0-3.669-0.986-6.9-2.956-9.695
			c-1.973-2.793-5.617-6.15-10.938-10.071c-6.702-5.004-11.381-9.528-14.041-13.574c-2.66-4.045-3.991-8.611-3.991-13.699
			c0-6.922,2.069-12.28,6.208-16.076c4.139-3.794,10.148-5.692,18.033-5.692c7.783,0,13.672,1.898,17.663,5.692
			c3.991,3.796,5.986,9.238,5.986,16.326v6.473h-15.372v-7.349c0-3.003-0.691-5.192-2.069-6.568
			c-1.381-1.376-3.399-2.064-6.06-2.064c-5.42,0-8.129,2.795-8.129,8.382c0,3.171,1.009,6.13,3.03,8.882
			c2.019,2.752,5.691,6.089,11.011,10.008c6.799,5.004,11.478,9.551,14.042,13.636c2.561,4.087,3.843,8.882,3.843,14.387
			c0,7.174-2.094,12.679-6.282,16.514c-4.19,3.837-10.272,5.755-18.254,5.755C271.672,296.148,265.711,294.252,261.671,290.456z"/>
		<path d="M324.669,219.834h-16.997v-12.511h50.253v12.511h-16.998v75.063h-16.259V219.834z"/>
		<path d="M366.77,207.324h24.092c8.374,0,14.485,1.648,18.327,4.942c3.844,3.296,5.765,8.362,5.765,15.2v5.38
			c0,9.091-3.547,14.846-10.642,17.264v0.25c3.939,1.001,6.725,3.045,8.35,6.13c1.626,3.087,2.439,7.215,2.439,12.385v15.388
			c0,2.502,0.097,4.525,0.296,6.068c0.196,1.544,2.232,4.085,3.459,4.566h-18.535c-0.592-1.417-0.986-2.752-1.182-4.004
			c-0.199-1.251-0.296-3.503-0.296-6.755v-16.014c0-4.003-0.764-6.797-2.291-8.382c-1.529-1.583-4.164-2.377-7.908-2.377h-5.616
			v37.531H366.77V207.324z M388.941,244.855c3.251,0,5.69-0.708,7.316-2.127c1.626-1.417,2.439-3.794,2.439-7.131v-6.756
			c0-3.169-0.665-5.461-1.995-6.881c-1.331-1.418-3.425-2.127-6.282-2.127h-7.39v25.021H388.941z"/>
		<path d="M422.582,207.324h16.259v87.573h-16.259V207.324z"/>
		<path d="M450.958,207.324H495.3v12.511h-28.082v23.144h22.318v12.51h-22.318v26.898H495.3v12.51h-44.341V207.324z"/>
		<path d="M508.157,290.456c-4.042-3.794-6.06-9.236-6.06-16.326v-11.806h15.372v12.807c0,5.673,2.808,8.507,8.425,8.507
			c2.757,0,4.852-0.688,6.282-2.064c1.427-1.376,2.143-3.606,2.143-6.693c0-3.669-0.986-6.9-2.956-9.695
			c-1.973-2.793-5.617-6.15-10.938-10.071c-6.702-5.004-11.381-9.528-14.041-13.574c-2.66-4.045-3.991-8.611-3.991-13.699
			c0-6.922,2.069-12.28,6.208-16.076c4.139-3.794,10.148-5.692,18.033-5.692c7.783,0,13.672,1.898,17.663,5.692
			c3.991,3.796,5.986,9.238,5.986,16.326l0.177,6.184h-15.372l-0.177-7.06c0-3.003-0.691-5.192-2.07-6.568
			c-1.381-1.376-3.399-2.064-6.06-2.064c-5.42,0-8.129,2.795-8.129,8.382c0,3.171,1.009,6.13,3.03,8.882
			c2.019,2.752,5.691,6.089,11.011,10.008c6.799,5.004,11.478,9.551,14.042,13.636c2.561,4.087,3.843,8.882,3.843,14.387
			c0,7.174-2.094,12.679-6.282,16.514c-4.19,3.837-10.272,5.755-18.254,5.755C518.158,296.148,512.197,294.252,508.157,290.456z"/>
	</g>
	<path d="M222.88,49.365c0-1.722,0.431-3.3,1.291-4.735c0.861-1.435,2.009-2.582,3.444-3.444c1.435-0.861,3.013-1.291,4.735-1.291
		c1.722,0,3.3,0.431,4.735,1.291c1.435,0.861,2.582,2.009,3.444,3.444c0.861,1.435,1.291,3.013,1.291,4.735
		c0,1.578-0.431,3.156-1.148,4.591c-0.717,1.435-2.009,2.582-3.444,3.444c-1.435,0.861-3.013,1.291-4.735,1.291
		c-1.722,0-3.3-0.431-4.735-1.291c-1.435-0.861-2.582-2.009-3.444-3.444C223.167,52.521,222.88,50.943,222.88,49.365
		 M224.171,49.365c0,1.435,0.431,2.726,1.148,4.017c0.717,1.291,1.722,2.295,3.013,3.013c1.291,0.717,2.582,1.148,4.017,1.148
		c1.435,0,2.869-0.431,4.017-1.148c1.291-0.717,2.295-1.722,3.013-3.013c0.717-1.291,1.148-2.582,1.148-4.017
		c0-1.435-0.431-2.726-1.148-4.017c-0.717-1.291-1.722-2.295-3.013-3.013c-1.291-0.717-2.582-1.148-4.017-1.148
		c-1.435,0-2.726,0.431-4.017,1.148c-1.291,0.717-2.295,1.722-3.013,3.013C224.458,46.496,224.171,47.787,224.171,49.365
		 M236.078,47.069c0,0.717-0.144,1.291-0.574,1.722c-0.431,0.574-0.861,0.861-1.435,1.148l3.013,4.878h-2.152l-2.582-4.448h-1.722
		v4.448h-1.865V43.626h3.3c1.435,0,2.439,0.287,3.013,0.861C235.648,45.061,236.078,45.922,236.078,47.069 M230.626,48.935h1.291
		c0.717,0,1.148-0.144,1.578-0.574c0.431-0.287,0.574-0.717,0.574-1.291s-0.144-1.148-0.574-1.291
		c-0.431-0.287-0.861-0.431-1.722-0.431h-1.148V48.935z"/>
</g>
</svg>
