<?xml version="1.0" encoding="utf-8"?>
<!-- Generator: Adobe Illustrator 25.4.1, SVG Export Plug-In . SVG Version: 6.00 Build 0)  -->
<svg version="1.1" id="Capa_1" xmlns="http://www.w3.org/2000/svg" xmlns:xlink="http://www.w3.org/1999/xlink" x="0px" y="0px"
	 width="612px" height="454.569px" viewBox="0 0 612 454.569" enable-background="new 0 0 612 454.569" xml:space="preserve">
<g>
	<g>
		<path d="M62.58,243.959c3.857,1.951,10.09,3.973,16.44,3.973c5.81,0,8.679-2.046,8.679-5.281c0-3.069-2.846-4.877-10.019-7.351
			c-10.678-3.83-17.804-9.802-17.804-19.341c0-11.347,9.455-20.054,25.472-20.054c7.573,0,12.983,1.427,17.146,3.283l-3.551,13.726
			c-2.728-1.213-7.432-3.045-13.782-3.045c-5.174,0-8.02,1.927-8.02,4.734c0,3.259,3.363,4.567,11.36,7.589
			c11.43,4.234,16.534,10.419,16.534,19.34c0,11.086-8.514,20.506-27.024,20.506c-7.644,0-15.053-2.022-18.651-3.901L62.58,243.959z
			"/>
		<path d="M284.525,234.853h-20.666v12.004h23.098v14.251H248.46v-65.119h37.302v14.251h-21.903v10.507h20.666V234.853z"/>
		<path d="M340.512,260.372c-2.399,1.207-8.373,2.681-15.97,2.681c-23.732,0-34.151-15.168-34.151-32.511
			c0-22.971,16.393-34.636,35.304-34.636c7.29,0,13.217,1.401,15.852,2.898l-3.316,13.719c-2.752-1.184-6.68-2.343-11.737-2.343
			c-9.761,0-18.204,5.918-18.204,19.251c0,11.812,6.867,19.154,18.509,19.154c4.116,0,8.726-0.822,11.361-1.86L340.512,260.372z"/>
		<polygon points="188.838,195.989 204.221,195.989 179.198,263.053 163.61,263.053 		"/>
		<path d="M206.887,195.857h33.022v9.382c0,0-6.448,0.32-8.439,3.82l0.029,40.457c0,0,2.538,3.384,8.409,3.871v8.651h-33.022v-8.6
			c0,0,5.615-0.846,7.486-3.923v-40.374c0,0-2.564-3.852-7.486-3.852V195.857z"/>
		<path d="M22.599,195.857h33.022v9.382c0,0-6.448,0.32-8.439,3.82l0.029,40.457c0,0,2.538,3.384,8.409,3.871v8.651H22.599v-8.6
			c0,0,5.615-0.846,7.486-3.923v-40.374c0,0-2.564-3.852-7.486-3.852V195.857z"/>
		<path d="M138.68,195.989h-0.186c-14.901,0-26.981,12.08-26.981,26.981v13.101c0,14.901,12.08,26.981,26.981,26.981h0.186
			c14.901,0,26.981-12.08,26.981-26.981V222.97C165.661,208.069,153.581,195.989,138.68,195.989z M150.278,237.722
			c0,6.513-5.28,11.794-11.794,11.794h0c-6.513,0-11.794-5.28-11.794-11.794v-17.024c0-6.513,5.28-11.794,11.794-11.794h0
			c6.513,0,11.794,5.28,11.794,11.794V237.722z"/>
		<g>
			<path d="M383.845,212.986h-0.177l-9.721,12.686l-9.23-10.307l17.614-19.46h16.933v67.132h-15.418V212.986z"/>
			<path d="M449.673,196.812v11.411l-23.15,54.815h-17.013l23.216-50.943v-0.204h-25.653v-15.079H449.673z"/>
			<path d="M497.968,229.823c0,19.511-7.155,34.335-22.685,34.335c-16.482,0-22.597-16.76-22.597-34.132
				c0-17.932,6.448-34.336,22.729-34.336C492.23,195.691,497.968,212.935,497.968,229.823z M468.615,229.925
				c-0.045,14.366,2.547,20.479,6.867,20.479c4.076,0,6.557-6.215,6.557-20.479c0-13.958-2.437-20.402-6.624-20.402
				C471.251,209.522,468.593,215.61,468.615,229.925z"/>
			<path d="M500.575,263.038v-11.08l7.975-8.075c11.697-11.666,17.59-18.543,17.722-25.318c0-4.789-2.748-8.228-8.596-8.228
				c-4.828,0-9.171,2.751-12.361,5.374l-4.341-13.143c4.452-3.719,11.697-6.877,19.915-6.877c13.38,0,21.311,8.33,21.311,21.422
				c0,10.596-6.58,19.104-13.359,25.497l-5.671,5.145v0.204h20.049v15.079H500.575z"/>
			<path d="M586.589,211.84h-22.53l-0.819,7.158c1.262-0.153,2.259-0.153,3.323-0.153c5.936,0.025,12.139,1.63,16.393,5.298
				c4.276,3.642,6.446,9.042,6.446,16.505c0,12.124-9.327,23.51-26.162,23.51c-7.267,0-13.336-1.757-16.77-3.617l2.658-13.729
				c2.635,1.375,8.086,3.133,13.247,3.133c4.873,0,10.633-2.012,10.633-8.253c0-6.036-4.608-9.45-16.083-9.45
				c-3.08,0-5.207,0.229-7.643,0.586l3.745-36.016h33.562V211.84z"/>
		</g>
	</g>
	<g>
		<path d="M167.838,128.659l3.586-4.897l41.716,13.234l-3.362,4.59l-22.889-7.909c-4.583-1.554-9.077-3.121-13.701-4.941
			l-0.149,0.204c3.092,3.91,5.98,7.671,8.844,11.571l14.372,19.538l-3.212,4.387L167.838,128.659z M183.794,148.495l11.245-15.353
			l3.468,2.54l-11.245,15.353L183.794,148.495z"/>
		<path d="M197.037,124.403c-8.825-10.004-8.388-21.265-0.28-28.416c3.746-3.304,8.275-4.096,11.88-3.735l-0.059,4.52
			c-3.118-0.285-6.119,0.422-8.726,2.723c-5.927,5.228-5.591,13.446,1.226,21.175c6.901,7.824,15.097,9.277,21.023,4.05
			c2.845-2.51,3.938-5.666,3.958-9.562l4.409,0.411c0.091,4.978-1.527,9.356-5.652,12.994
			C217.136,135.338,205.987,134.55,197.037,124.403z"/>
		<path d="M221.629,103.115c-6.469-11.667-3.622-22.571,5.833-27.813c4.368-2.422,8.961-2.221,12.405-1.094l-1.029,4.402
			c-2.984-0.948-6.067-0.902-9.108,0.784c-6.912,3.832-8.35,11.931-3.352,20.943c5.058,9.123,12.75,12.304,19.662,8.472
			c3.318-1.839,5.064-4.687,5.921-8.488l4.217,1.349c-0.98,4.881-3.502,8.809-8.312,11.476
			C238.909,118.113,228.189,114.947,221.629,103.115z"/>
		<path d="M246.404,67.105l12.427-3.685c8.062-2.39,14.804-1.224,17.267,7.081c2.354,7.941-2.394,13.503-10.456,15.893l-7.274,2.157
			l4.978,16.791l-5.153,1.528L246.404,67.105z M263.693,82.488c6.183-1.833,8.823-5.385,7.313-10.477
			c-1.546-5.213-5.497-6.086-11.68-4.252l-6.546,1.941l4.367,14.73L263.693,82.488z M267.409,81.453l18.306,17.258l-5.759,1.708
			l-15.757-15.112L267.409,81.453z"/>
		<path d="M283.13,57.756l25.604-1.813l0.318,4.477l-20.307,1.438l0.915,12.928l17.154-1.215l0.317,4.478l-17.154,1.215
			l1.063,15.009l20.938-1.483l0.317,4.477l-26.234,1.858L283.13,57.756z"/>
		<path d="M318.318,56.332l10.135,1.47c12.326,1.788,17.958,10.079,16.07,23.092c-1.897,13.076-9.698,19.738-21.773,17.986
			l-10.385-1.506L318.318,56.332z M322.749,94.473c9.322,1.353,14.824-3.982,16.33-14.368c1.498-10.323-2.306-16.688-11.628-18.04
			l-4.505-0.653l-4.7,32.408L322.749,94.473z"/>
		<path d="M342.158,97.502l9.636,3.655l11.524-30.386l-9.636-3.655l1.593-4.197l24.237,9.193l-1.592,4.197l-9.636-3.655
			l-11.524,30.386l9.635,3.655l-1.592,4.197l-24.237-9.192L342.158,97.502z"/>
		<path d="M395.529,86.546l-11.475-7.517l2.459-3.755l27.393,17.944l-2.461,3.754l-11.475-7.517l-20.265,30.935l-4.441-2.91
			L395.529,86.546z"/>
		<path d="M420.457,99.236l17.959,18.343l-3.208,3.141l-14.243-14.548l-9.263,9.068l12.032,12.289l-3.208,3.141l-12.032-12.29
			l-10.752,10.528l14.686,15l-3.208,3.141l-18.402-18.795L420.457,99.236z"/>
		<path d="M444.327,125.17l5.43,8.686c6.603,10.561,3.916,20.22-7.235,27.191c-11.206,7.005-21.333,5.357-27.801-4.99l-5.564-8.9
			L444.327,125.17z M418.084,153.207c4.994,7.988,12.622,8.738,21.521,3.175c8.846-5.53,11.245-12.547,6.252-20.536l-2.414-3.86
			l-27.772,17.361L418.084,153.207z"/>
	</g>
	<g>
		<g>
			<path d="M193.245,291.313l3.161,4.188l-29.52,22.29l12.345,16.35l-3.583,2.705l-15.507-20.537L193.245,291.313z"/>
			<path d="M215.831,317.72l4.543,4.026l-17.058,40.308l-4.258-3.775l10.005-22.057c1.972-4.419,3.952-8.749,6.193-13.183
				l-0.189-0.168c-4.181,2.715-8.195,5.241-12.345,7.73l-20.792,12.494l-4.068-3.607L215.831,317.72z M194.594,331.763
				l14.242,12.625l-2.852,3.217l-14.242-12.625L194.594,331.763z"/>
			<path d="M229.225,329.336l10.169,5.904c7.327,4.255,10.874,9.603,7.223,15.891c-2.064,3.555-5.927,5.551-10.827,4.168
				l-0.127,0.218c4.772,3.868,6.182,8.488,3.326,13.409c-4.096,7.053-11.563,7.323-19.6,2.657l-10.989-6.382L229.225,329.336z
				 M220.955,367.375c6.124,3.555,10.853,3.596,13.678-1.27c2.571-4.428,0.229-8.201-6.058-11.852l-5.796-3.365l-7.619,13.121
				L220.955,367.375z M229.867,349.886c6.123,3.555,9.727,3.016,12.044-0.975c2.254-3.882,0.236-6.954-5.286-10.16l-5.085-2.953
				l-6.54,11.263L229.867,349.886z"/>
			<path d="M243.396,361.366c4.282-12.702,13.039-18.091,21.906-15.101c8.868,2.99,12.575,12.581,8.292,25.282
				c-4.344,12.882-13.16,18.451-22.028,15.461C242.697,384.019,239.052,374.248,243.396,361.366z M268.381,369.79
				c3.333-9.886,1.357-17.092-4.574-19.092c-5.932-2-11.866,2.538-15.2,12.425c-3.394,10.066-1.48,17.451,4.452,19.451
				C258.992,384.575,264.986,379.856,268.381,369.79z"/>
			<path d="M279.04,351.491l12.864,1.6c8.342,1.038,14.054,4.806,12.986,13.402c-1.022,8.219-7.599,11.414-15.944,10.377
				l-7.529-0.936l-2.161,17.379l-5.333-0.663L279.04,351.491z M288.723,372.509c6.4,0.796,10.24-1.402,10.896-6.673
				c0.672-5.395-2.6-7.777-9-8.573l-6.776-0.842l-1.896,15.246L288.723,372.509z M292.543,373.048l9.865,23.143l-5.962-0.741
				l-8.388-20.156L292.543,373.048z"/>
			<path d="M315.919,353.943l6.053-0.448l16.997,40.336l-5.676,0.42l-8.834-22.553c-1.791-4.496-3.512-8.934-5.129-13.633
				l-0.254,0.019c-0.97,4.89-1.957,9.528-3.067,14.24l-5.543,23.616l-5.424,0.401L315.919,353.943z M311.176,378.958l18.98-1.405
				l0.318,4.288l-18.98,1.405L311.176,378.958z"/>
			<path d="M344.476,354.051l-13.208,3.709l-1.214-4.322l31.534-8.855l1.214,4.322l-13.211,3.709l10,35.613l-5.113,1.436
				L344.476,354.051z"/>
			<path d="M366.419,364.608c-6.133-11.917-3.903-21.952,4.416-26.233c8.319-4.281,17.782-0.264,23.913,11.653
				c6.22,12.085,4.077,22.288-4.242,26.569C382.187,380.878,372.637,376.692,366.419,364.608z M389.859,352.544
				c-4.772-9.275-11.319-12.874-16.883-10.01c-5.564,2.864-6.44,10.282-1.667,19.556c4.859,9.443,11.493,13.211,17.057,10.347
				C393.929,369.574,394.718,361.987,389.859,352.544z"/>
			<path d="M384.156,332.129l10.117-8.104c6.561-5.258,13.245-6.724,18.662,0.036c5.177,6.465,2.884,13.408-3.679,18.666
				l-5.923,4.744l10.951,13.669l-4.194,3.361L384.156,332.129z M405.974,339.846c5.033-4.033,6.138-8.319,2.815-12.465
				c-3.4-4.244-7.389-3.559-12.422,0.473l-5.33,4.269l9.607,11.991L405.974,339.846z M409.024,337.484l23.469,9.068l-4.688,3.755
				l-20.3-8.044L409.024,337.484z"/>
			<path d="M432.333,324.251l-29.385-6.452l3.609-4.315l13.382,3.117c3.487,0.857,6.847,1.77,10.462,2.571l0.162-0.194
				c-1.466-3.37-2.836-6.66-4.295-9.94l-5.555-12.477l3.49-4.17l11.537,27.787l11.347,9.492l-3.407,4.074L432.333,324.251z"/>
		</g>
	</g>
	<path d="M172.941,93.46c35.745-35.745,83.269-55.427,133.825-55.427s98.08,19.681,133.825,55.427
		c24.927,24.927,42.044,55.591,50.123,89.006h13.195C483.525,92.394,402.996,25.154,306.766,25.154s-176.759,67.24-197.143,157.311
		h13.195C130.897,149.05,148.014,118.387,172.941,93.46z M440.591,361.109c-35.745,35.745-83.269,55.427-133.825,55.427
		s-98.08-19.681-133.825-55.427c-23.756-23.756-40.405-52.699-48.917-84.287h-13.277c22.093,87.683,101.475,152.593,196.019,152.593
		s173.925-64.91,196.019-152.593h-13.277C480.996,308.411,464.347,337.353,440.591,361.109z"/>
	<path d="M306.766,128.467c38.181,0,71.326,22,87.402,53.998h14.237c-16.953-39.34-56.082-66.877-101.639-66.877
		c-45.557,0-84.685,27.538-101.627,66.877h14.237C235.44,150.467,268.585,128.467,306.766,128.467z M306.766,323.971
		c-35.394,0-66.456-18.909-83.608-47.149H208.37c18.37,35.651,55.544,60.028,98.396,60.028c42.864,0,80.037-24.376,98.408-60.028
		h-14.799C373.222,305.062,342.16,323.971,306.766,323.971z"/>
</g>
</svg>
